<svg xmlns="http://www.w3.org/2000/svg" fill="none" viewBox="0 0 256 256">
	<g filter="url(#a)">
		<rect width="180" height="180" x="40.724" y="36.594" fill="#fff" rx="32" />
		<rect width="179" height="179" x="41.224" y="37.094" stroke="#D9D9D9" rx="31.5" />
	</g>
	<path fill="#DE4C36" d="m178.666 121.733-43.661-43.659a6.44 6.44 0 0 0-9.107 0l-9.066 9.067 11.501 11.5a7.644 7.644 0 0 1 7.868 1.834 7.655 7.655 0 0 1 1.817 7.916l11.084 11.085c2.682-.924 5.776-.327 7.918 1.819a7.664 7.664 0 1 1-12.508 2.501l-10.336-10.336-.001 27.202c.749.37 1.433.859 2.026 1.449a7.663 7.663 0 1 1-8.328-1.672v-27.456a7.57 7.57 0 0 1-2.508-1.672 7.66 7.66 0 0 1-1.651-8.377l-11.338-11.339-29.937 29.936a6.442 6.442 0 0 0 0 9.11l43.662 43.659a6.44 6.44 0 0 0 9.107 0l43.458-43.456a6.444 6.444 0 0 0 0-9.111" />
	<defs>
		<filter id="a" width="260" height="260" x=".724" y=".594" color-interpolation-filters="sRGB" filterUnits="userSpaceOnUse">
			<feFlood flood-opacity="0" result="BackgroundImageFix" />
			<feColorMatrix in="SourceAlpha" result="hardAlpha" values="0 0 0 0 0 0 0 0 0 0 0 0 0 0 0 0 0 0 127 0" />
			<feOffset dy="4" />
			<feGaussianBlur stdDeviation="20" />
			<feComposite in2="hardAlpha" operator="out" />
			<feColorMatrix values="0 0 0 0 0.0367917 0 0 0 0 0.0348958 0 0 0 0 0.0484375 0 0 0 0.1 0" />
			<feBlend in2="BackgroundImageFix" result="effect1_dropShadow_22_685" />
			<feBlend in="SourceGraphic" in2="effect1_dropShadow_22_685" result="shape" />
		</filter>
	</defs>
</svg>
