<svg xmlns="http://www.w3.org/2000/svg" fill="none" viewBox="0 0 256 256">
	<g filter="url(#a)">
		<rect width="180" height="180" x="40.724" y="36.594" fill="#fff" rx="32" />
		<rect width="179" height="179" x="41.224" y="37.094" stroke="#D9D9D9" rx="31.5" />
	</g>
	<path fill="#161614" d="M130.276 77.422c-27.61 0-50 22.386-50 50.001 0 22.091 14.327 40.833 34.193 47.445 2.499.463 3.417-1.085 3.417-2.405 0-1.193-.047-5.132-.068-9.31-13.911 3.025-16.846-5.899-16.846-5.899-2.274-5.779-5.551-7.316-5.551-7.316-4.537-3.103.342-3.04.342-3.04 5.021.353 7.664 5.153 7.664 5.153 4.46 7.644 11.697 5.434 14.551 4.157.448-3.232 1.744-5.438 3.174-6.686-11.106-1.265-22.78-5.552-22.78-24.711 0-5.458 1.953-9.919 5.152-13.42-.52-1.26-2.231-6.345.484-13.233 0 0 4.199-1.343 13.753 5.126 3.989-1.108 8.266-1.664 12.515-1.682 4.25.018 8.53.574 12.526 1.682 9.544-6.47 13.737-5.126 13.737-5.126 2.721 6.888 1.009 11.973.49 13.233 3.205 3.501 5.145 7.961 5.145 13.42 0 19.204-11.696 23.433-22.83 24.671 1.793 1.551 3.391 4.595 3.391 9.259 0 6.69-.058 12.075-.058 13.722 0 1.33.9 2.889 3.435 2.398 19.856-6.619 34.164-25.354 34.164-47.438 0-27.615-22.386-50-50-50Z" />
	<path fill="#161614" d="M99.003 148.649c-.11.248-.501.323-.857.152-.363-.163-.567-.502-.45-.751.109-.256.5-.327.862-.155.364.163.57.504.445.754Zm2.459 2.194c-.238.221-.704.119-1.021-.231-.327-.348-.388-.814-.146-1.039.246-.221.698-.117 1.026.232.327.352.39.815.141 1.039v-.001Zm1.688 2.808c-.307.213-.808.013-1.118-.431-.306-.445-.306-.978.007-1.192.311-.213.804-.021 1.118.42.306.452.306.985-.008 1.203h.001Zm2.853 3.252c-.274.302-.858.221-1.285-.191-.437-.403-.559-.976-.284-1.278.277-.303.864-.217 1.295.192.434.402.566.978.274 1.277Zm3.688 1.098c-.121.391-.683.57-1.249.403-.566-.171-.936-.63-.822-1.026.118-.394.682-.579 1.253-.401.565.17.936.626.818 1.024Zm4.197.466c.014.412-.466.754-1.061.762-.598.012-1.081-.321-1.087-.727 0-.416.469-.755 1.067-.765.594-.012 1.081.32 1.081.73Zm4.123-.158c.072.402-.342.815-.932.925-.58.106-1.118-.142-1.192-.541-.072-.413.349-.826.929-.933.591-.102 1.12.14 1.195.549Z" />
	<defs>
		<filter id="a" width="260" height="260" x=".724" y=".594" color-interpolation-filters="sRGB" filterUnits="userSpaceOnUse">
			<feFlood flood-opacity="0" result="BackgroundImageFix" />
			<feColorMatrix in="SourceAlpha" result="hardAlpha" values="0 0 0 0 0 0 0 0 0 0 0 0 0 0 0 0 0 0 127 0" />
			<feOffset dy="4" />
			<feGaussianBlur stdDeviation="20" />
			<feComposite in2="hardAlpha" operator="out" />
			<feColorMatrix values="0 0 0 0 0.0367917 0 0 0 0 0.0348958 0 0 0 0 0.0484375 0 0 0 0.1 0" />
			<feBlend in2="BackgroundImageFix" result="effect1_dropShadow_22_662" />
			<feBlend in="SourceGraphic" in2="effect1_dropShadow_22_662" result="shape" />
		</filter>
	</defs>
</svg>
