<svg xmlns="http://www.w3.org/2000/svg" fill="none" viewBox="0 0 256 256">
	<g filter="url(#a)">
		<rect width="180" height="180" x="40.724" y="36.297" fill="#fff" rx="32" />
		<rect width="179" height="179" x="41.224" y="36.797" stroke="#D9D9D9" rx="31.5" />
	</g>
	<path fill="#599636" d="m130.068 76.164 2.668 5.012c.6.925 1.25 1.744 2.016 2.506a70.142 70.142 0 0 1 6.262 7.081c4.521 5.937 7.571 12.53 9.749 19.661 1.306 4.356 2.016 8.824 2.069 13.343.218 13.508-4.413 25.107-13.749 34.747a39.775 39.775 0 0 1-4.906 4.194c-.925 0-1.363-.71-1.744-1.363a11.217 11.217 0 0 1-1.362-3.921c-.328-1.635-.544-3.269-.438-4.956v-.763c-.075-.162-.89-75.157-.565-75.54Z" />
	<path fill="#6CAC48" d="M130.068 75.999c-.11-.22-.219-.053-.328.053.053 1.093-.329 2.068-.925 3-.657.924-1.525 1.634-2.397 2.396-4.843 4.194-8.656 9.259-11.709 14.924-4.062 7.625-6.155 15.796-6.749 24.398-.272 3.103.981 14.052 1.959 17.212 2.669 8.386 7.462 15.414 13.671 21.514 1.525 1.468 3.156 2.831 4.843 4.14.491 0 .544-.438.657-.763a14.86 14.86 0 0 0 .49-2.124l1.094-8.169-.606-76.581Z" />
	<path fill="#C2BFBF" d="M132.736 166.026c.11-1.25.71-2.287 1.363-3.321-.657-.272-1.144-.813-1.525-1.416a10.12 10.12 0 0 1-.813-1.797c-.762-2.287-.925-4.687-1.143-7.024v-1.416c-.272.219-.328 2.069-.328 2.344a54.196 54.196 0 0 1-.982 7.353c-.162.981-.272 1.959-.875 2.831 0 .109 0 .218.054.381.981 2.887 1.249 5.828 1.415 8.824v1.094c0 1.306-.053 1.031 1.031 1.468.438.163.925.219 1.363.544.328 0 .381-.272.381-.49l-.163-1.797v-5.012c-.053-.875.11-1.744.219-2.563l.003-.003Z" />
	<defs>
		<filter id="a" width="260" height="260" x=".724" y=".297" color-interpolation-filters="sRGB" filterUnits="userSpaceOnUse">
			<feFlood flood-opacity="0" result="BackgroundImageFix" />
			<feColorMatrix in="SourceAlpha" result="hardAlpha" values="0 0 0 0 0 0 0 0 0 0 0 0 0 0 0 0 0 0 127 0" />
			<feOffset dy="4" />
			<feGaussianBlur stdDeviation="20" />
			<feComposite in2="hardAlpha" operator="out" />
			<feColorMatrix values="0 0 0 0 0.0367917 0 0 0 0 0.0348958 0 0 0 0 0.0484375 0 0 0 0.1 0" />
			<feBlend in2="BackgroundImageFix" result="effect1_dropShadow_22_683" />
			<feBlend in="SourceGraphic" in2="effect1_dropShadow_22_683" result="shape" />
		</filter>
	</defs>
</svg>
