<svg xmlns="http://www.w3.org/2000/svg" fill="none" viewBox="0 0 256 256">
	<g filter="url(#a)">
		<rect width="180" height="180" x="40.724" y="36" fill="#fff" rx="32" />
		<rect width="179" height="179" x="41.224" y="36.5" stroke="#D9D9D9" rx="31.5" />
	</g>
	<path fill="#000" d="M103.872 111.937h18.861v1.492h-17.132v11.228h16.11v1.492h-16.11v12.328h17.328v1.491h-19.057v-28.031Zm20.55 0h2.004l8.881 12.327 9.077-12.327 12.346-15.66-20.284 29.283 10.452 14.408h-2.082l-9.509-13.112-9.549 13.112h-2.043l10.531-14.408-9.824-13.623Zm23.223 1.492v-1.492h21.494v1.492h-9.902v26.539h-1.729v-26.539h-9.863ZM80.276 111.937h2.161l29.801 44.38-12.315-16.349-17.84-25.911-.078 25.911h-1.729v-28.031ZM168.964 138.026a.607.607 0 0 0 .619-.624.607.607 0 0 0-.619-.624.61.61 0 0 0-.618.624.61.61 0 0 0 .618.624Zm1.699-1.642c0 1.039.753 1.718 1.85 1.718 1.169 0 1.876-.7 1.876-1.915v-4.279h-.942v4.275c0 .674-.341 1.035-.942 1.035-.538 0-.904-.336-.917-.834h-.925Zm4.958-.055c.067 1.081.971 1.773 2.317 1.773 1.438 0 2.338-.725 2.338-1.882 0-.909-.513-1.412-1.758-1.701l-.668-.163c-.791-.185-1.11-.432-1.11-.864 0-.544.496-.901 1.24-.901.707 0 1.194.348 1.283.906h.916c-.054-1.019-.954-1.735-2.186-1.735-1.325 0-2.208.716-2.208 1.793 0 .889.5 1.417 1.598 1.672l.782.189c.803.188 1.157.465 1.157.926 0 .536-.556.926-1.312.926-.812 0-1.376-.365-1.455-.939h-.934Z" />
	<defs>
		<filter id="a" width="260" height="260" x=".724" y="0" color-interpolation-filters="sRGB" filterUnits="userSpaceOnUse">
			<feFlood flood-opacity="0" result="BackgroundImageFix" />
			<feColorMatrix in="SourceAlpha" result="hardAlpha" values="0 0 0 0 0 0 0 0 0 0 0 0 0 0 0 0 0 0 127 0" />
			<feOffset dy="4" />
			<feGaussianBlur stdDeviation="20" />
			<feComposite in2="hardAlpha" operator="out" />
			<feColorMatrix values="0 0 0 0 0.0367917 0 0 0 0 0.0348958 0 0 0 0 0.0484375 0 0 0 0.1 0" />
			<feBlend in2="BackgroundImageFix" result="effect1_dropShadow_20_1664" />
			<feBlend in="SourceGraphic" in2="effect1_dropShadow_20_1664" result="shape" />
		</filter>
	</defs>
</svg>
