<svg xmlns="http://www.w3.org/2000/svg" fill="none" viewBox="0 0 256 256">
	<g filter="url(#a)">
		<rect width="180" height="180" x="40.724" y="36" fill="#fff" rx="32" />
		<rect width="179" height="179" x="41.224" y="36.5" stroke="#D9D9D9" rx="31.5" />
	</g>
	<path fill="#8CC84B" d="M126.734 77.364c2.48-1.42 5.709-1.426 8.187 0 12.463 7.043 24.931 14.074 37.392 21.121 2.344 1.32 3.912 3.929 3.888 6.629v42.371c.017 2.813-1.705 5.484-4.178 6.774-12.423 7.004-24.839 14.016-37.259 21.02-2.531 1.447-5.826 1.335-8.277-.23-3.725-2.159-7.455-4.308-11.18-6.464-.761-.454-1.619-.815-2.157-1.553.475-.641 1.325-.72 2.015-1 1.555-.494 2.983-1.288 4.411-2.058.361-.247.802-.152 1.148.069 3.185 1.826 6.341 3.705 9.537 5.513.681.394 1.372-.128 1.954-.453 12.191-6.89 24.396-13.754 36.584-20.646.452-.217.702-.696.665-1.191.008-13.977.002-27.957.004-41.934a1.309 1.309 0 0 0-.78-1.307c-12.38-6.972-24.753-13.955-37.131-20.928a1.286 1.286 0 0 0-1.458-.002c-12.377 6.975-24.748 13.964-37.125 20.936-.506.23-.846.737-.785 1.301.002 13.977 0 27.957 0 41.936a1.186 1.186 0 0 0 .673 1.176c3.303 1.873 6.61 3.733 9.915 5.6 1.862 1.002 4.148 1.598 6.2.83 1.81-.65 3.079-2.497 3.044-4.419.017-13.896-.008-27.794.013-41.687-.045-.617.54-1.127 1.14-1.069 1.587-.01 3.176-.021 4.763.005.663-.015 1.118.649 1.036 1.27-.006 13.984.018 27.968-.01 41.952.004 3.726-1.527 7.782-4.974 9.605-4.247 2.2-9.496 1.734-13.691-.376-3.633-1.813-7.099-3.952-10.666-5.894-2.48-1.283-4.194-3.965-4.176-6.775v-42.372c-.026-2.756 1.604-5.412 4.02-6.713 12.421-7.01 24.84-14.024 37.258-21.037Z" />
	<path fill="#8CC84B" d="M137.57 106.715c5.417-.349 11.216-.207 16.091 2.462 3.774 2.045 5.866 6.337 5.933 10.53-.106.565-.697.877-1.237.838-1.571-.002-3.143.022-4.715-.01-.667.025-1.054-.589-1.138-1.179-.452-2.006-1.546-3.993-3.434-4.961-2.899-1.451-6.26-1.378-9.421-1.348-2.307.123-4.789.323-6.744 1.68-1.5 1.027-1.956 3.102-1.421 4.773.505 1.2 1.891 1.587 3.024 1.944 6.528 1.708 13.446 1.538 19.85 3.785 2.651.916 5.244 2.697 6.152 5.472 1.187 3.721.667 8.168-1.98 11.154-2.147 2.458-5.273 3.796-8.391 4.523-4.148.924-8.453.948-12.666.537-3.961-.451-8.083-1.492-11.141-4.191-2.615-2.27-3.892-5.808-3.765-9.222.03-.577.604-.979 1.156-.932 1.583-.013 3.166-.017 4.749.002.632-.045 1.101.501 1.133 1.097.292 1.912 1.01 3.918 2.677 5.051 3.217 2.076 7.253 1.933 10.937 1.992 3.051-.136 6.477-.177 8.967-2.194 1.314-1.15 1.703-3.075 1.348-4.73-.385-1.398-1.847-2.05-3.103-2.476-6.445-2.038-13.44-1.299-19.822-3.604-2.591-.916-5.097-2.647-6.092-5.309-1.389-3.767-.753-8.427 2.172-11.313 2.851-2.871 6.967-3.976 10.881-4.372v.001Z" />
	<defs>
		<filter id="a" width="260" height="260" x=".724" y="0" color-interpolation-filters="sRGB" filterUnits="userSpaceOnUse">
			<feFlood flood-opacity="0" result="BackgroundImageFix" />
			<feColorMatrix in="SourceAlpha" result="hardAlpha" values="0 0 0 0 0 0 0 0 0 0 0 0 0 0 0 0 0 0 127 0" />
			<feOffset dy="4" />
			<feGaussianBlur stdDeviation="20" />
			<feComposite in2="hardAlpha" operator="out" />
			<feColorMatrix values="0 0 0 0 0.0367917 0 0 0 0 0.0348958 0 0 0 0 0.0484375 0 0 0 0.1 0" />
			<feBlend in2="BackgroundImageFix" result="effect1_dropShadow_20_1660" />
			<feBlend in="SourceGraphic" in2="effect1_dropShadow_20_1660" result="shape" />
		</filter>
	</defs>
</svg>
