<svg xmlns="http://www.w3.org/2000/svg" fill="none" viewBox="0 0 256 256">
	<g filter="url(#a)">
		<rect width="180" height="180" x="40.724" y="36.891" fill="#fff" rx="32" />
		<rect width="179" height="179" x="41.224" y="37.391" stroke="#D9D9D9" rx="31.5" />
	</g>
	<path fill="#017ACB" d="M80.38 76.485h100.001v100h-100v-100Z" />
	<path fill="#fff" d="M128.396 113.516h4.797v8.282h-12.969v36.843l-.343.094c-.469.125-6.641.125-7.969-.016l-1.063-.093v-36.828H97.881v-8.282l4.109-.047c2.25-.031 8.031-.031 12.844 0 4.812.032 10.906.047 13.562.047Zm36.61 41.219c-1.907 2.016-3.953 3.141-7.36 4.063-1.484.406-1.734.421-5.078.406-3.344-.016-3.609-.016-5.234-.438-4.203-1.078-7.594-3.187-9.906-6.172-.657-.843-1.735-2.593-1.735-2.812 0-.063.156-.203.36-.297.203-.094.625-.359.968-.562.344-.204.969-.579 1.391-.797.422-.219 1.641-.938 2.703-1.578 1.063-.641 2.031-1.157 2.141-1.157.109 0 .312.219.468.485.938 1.578 3.125 3.593 4.672 4.281.953.406 3.063.859 4.078.859.938 0 2.657-.406 3.579-.828.984-.453 1.484-.906 2.078-1.812.406-.641.453-.813.437-2.032 0-1.125-.062-1.437-.375-1.953-.875-1.437-2.062-2.187-6.875-4.312-4.969-2.203-7.203-3.516-9.015-5.281-1.344-1.313-1.61-1.672-2.454-3.313-1.093-2.109-1.234-2.797-1.25-5.937-.015-2.204.032-2.922.266-3.672.328-1.125 1.391-3.297 1.875-3.844 1-1.172 1.359-1.531 2.063-2.109 2.125-1.75 5.437-2.907 8.609-3.016.359 0 1.547.062 2.656.141 3.188.265 5.36 1.046 7.453 2.718 1.578 1.25 3.969 4.188 3.735 4.578-.157.235-6.391 4.391-6.797 4.516-.25.078-.422-.016-.766-.422-2.125-2.547-2.984-3.094-5.047-3.219-1.468-.093-2.25.079-3.234.735-1.031.687-1.531 1.734-1.531 3.187.015 2.125.828 3.125 3.828 4.61 1.937.953 3.594 1.734 3.719 1.734.187 0 4.203 2 5.25 2.625 4.875 2.859 6.859 5.797 7.375 10.859.375 3.813-.704 7.297-3.047 9.766Z" />
	<defs>
		<filter id="a" width="260" height="260" x=".724" y=".891" color-interpolation-filters="sRGB" filterUnits="userSpaceOnUse">
			<feFlood flood-opacity="0" result="BackgroundImageFix" />
			<feColorMatrix in="SourceAlpha" result="hardAlpha" values="0 0 0 0 0 0 0 0 0 0 0 0 0 0 0 0 0 0 127 0" />
			<feOffset dy="4" />
			<feGaussianBlur stdDeviation="20" />
			<feComposite in2="hardAlpha" operator="out" />
			<feColorMatrix values="0 0 0 0 0.0367917 0 0 0 0 0.0348958 0 0 0 0 0.0484375 0 0 0 0.1 0" />
			<feBlend in2="BackgroundImageFix" result="effect1_dropShadow_22_681" />
			<feBlend in="SourceGraphic" in2="effect1_dropShadow_22_681" result="shape" />
		</filter>
	</defs>
</svg>
