<svg xmlns="http://www.w3.org/2000/svg" fill="none" viewBox="0 0 256 256">
	<g filter="url(#a)">
		<rect width="180" height="180" x="40.724" y="36" fill="#fff" rx="32" />
		<rect width="179" height="179" x="41.224" y="36.5" stroke="#D9D9D9" rx="31.5" />
	</g>
	<path fill="#2489CA" d="M81.608 111.33s-2.436-1.755.487-4.1l6.81-6.089s1.948-2.05 4.008-.264l62.84 47.576v22.814s-.031 3.583-4.628 3.187L81.608 111.33Z" />
	<path fill="#1070B3" d="m97.805 126.036-16.197 14.725s-1.664 1.238 0 3.451l7.52 6.84s1.786 1.918 4.425-.264l17.171-13.021-12.919-11.731Z" />
	<path fill="#0877B9" d="m126.241 126.158 29.705-22.682-.193-22.692s-1.269-4.953-5.501-2.375l-39.528 35.976 15.517 11.773Z" />
	<path fill="#3C99D4" d="M151.125 174.484c1.725 1.766 3.816 1.188 3.816 1.188l23.148-11.407c2.964-2.02 2.548-4.526 2.548-4.526V91.622c0-2.994-3.065-4.029-3.065-4.029l-20.064-9.671c-4.384-2.71-7.256.487-7.256.487s3.694-2.659 5.501 2.375v90.067c0 .619-.132 1.228-.396 1.776-.528 1.066-1.675 2.06-4.425 1.644l.193.213Z" />
	<defs>
		<filter id="a" width="260" height="260" x=".724" y="0" color-interpolation-filters="sRGB" filterUnits="userSpaceOnUse">
			<feFlood flood-opacity="0" result="BackgroundImageFix" />
			<feColorMatrix in="SourceAlpha" result="hardAlpha" values="0 0 0 0 0 0 0 0 0 0 0 0 0 0 0 0 0 0 127 0" />
			<feOffset dy="4" />
			<feGaussianBlur stdDeviation="20" />
			<feComposite in2="hardAlpha" operator="out" />
			<feColorMatrix values="0 0 0 0 0.0367917 0 0 0 0 0.0348958 0 0 0 0 0.0484375 0 0 0 0.1 0" />
			<feBlend in2="BackgroundImageFix" result="effect1_dropShadow_20_1680" />
			<feBlend in="SourceGraphic" in2="effect1_dropShadow_20_1680" result="shape" />
		</filter>
	</defs>
</svg>
